HIERARCHY
ROOT simHips
{
  OFFSET 6.13146 95.3961 -0.669452
  CHANNELS 6 Xposition Yposition Zposition Zrotation Xrotation Yrotation
  JOINT simSpine
  {
    OFFSET -0.000360269 21.3001 -0.0169217
    CHANNELS 3 Zrotation Xrotation Yrotation
    JOINT simLeftArm
    {
      OFFSET 13.5181 21.3012 -2.3511e-005
      CHANNELS 3 Zrotation Xrotation Yrotation
      JOINT simLeftForeArm
      {
        OFFSET 24.5783 0 -6.3921e-005
        CHANNELS 3 Zrotation Xrotation Yrotation
        JOINT simLeftHand
        {
          OFFSET 24.5783 0 0
          CHANNELS 3 Zrotation Xrotation Yrotation
          End Site
          {
            OFFSET 7.32568 1.52588e-005 0.0169305
          }
        }
      }
    }
    JOINT simHead
    {
      OFFSET 0 27.4458 -0.00488811
      CHANNELS 3 Zrotation Xrotation Yrotation
      End Site
      {
        OFFSET 0 0 0
      }
    }
    JOINT simRightArm
    {
      OFFSET -13.5174 21.3012 -1.52733e-005
      CHANNELS 3 Zrotation Xrotation Yrotation
      JOINT simRightForeArm
      {
        OFFSET -24.5783 -0.000552281 0.000112897
        CHANNELS 3 Zrotation Xrotation Yrotation
        JOINT simRightHand
        {
          OFFSET -24.5783 0 1.19926e-005
          CHANNELS 3 Zrotation Xrotation Yrotation
          End Site
          {
            OFFSET -7.32568 1.52588e-005 0.0169305
          }
        }
      }
    }
  }
  JOINT simRightUpLeg
  {
    OFFSET -8.44614 -9.41038 0.835682
    CHANNELS 3 Zrotation Xrotation Yrotation
    JOINT simRightLeg
    {
      OFFSET -3.23466e-005 -40.9639 0
      CHANNELS 3 Zrotation Xrotation Yrotation
      JOINT simRightFoot
      {
        OFFSET 0 -40.9639 0
        CHANNELS 3 Zrotation Xrotation Yrotation
        End Site
        {
          OFFSET 0.50614 -9.67405 14.6709
        }
      }
    }
  }
  JOINT simLeftUpLeg
  {
    OFFSET 8.44614 -9.41038 0.835681
    CHANNELS 3 Zrotation Xrotation Yrotation
    JOINT simLeftLeg
    {
      OFFSET -0.00018133 -40.964 6.2497e-005
      CHANNELS 3 Zrotation Xrotation Yrotation
      JOINT simLeftFoot
      {
        OFFSET 0 -40.9639 0
        CHANNELS 3 Zrotation Xrotation Yrotation
        End Site
        {
          OFFSET -0.50614 -9.67405 14.6709
        }
      }
    }
  }
}
MOTION
Frames:	20
Frame Time:	0.0333333
5.33632 97.1392 -4.26719 11.9549 14.2036 -49.3277 1.77106 3.99617 5.60326 -65.6674 -3.21753 11.8731 -0.00130748 -8.22783e-005 -73.7053 -33.5009 -42.4057 -49.8567 -1.63335 -12.8915 19.1182 62.7855 3.20858 30.3925 -0.00248562 -6.73471e-006 116.191 170.699 -18.8046 -160.819 -23.9077 -21.1058 -24.3165 -0.00565692 28.9111 0.0403626 22.2786 -16.1543 5.87479 38.3224 -42.7554 33.6244 0.00979142 38.4233 -0.0264611 -17.6451 -3.688 -4.34115 
6.09918 96.9948 -4.13349 12.5785 15.5354 -49.8752 1.19724 5.00217 5.52199 -65.4659 -3.0481 11.1167 -0.00130684 -8.44361e-005 -73.2656 -33.5184 -42.0677 -50.2931 -1.36129 -13.6303 19.1565 63.3804 2.9624 30.0882 -0.00248569 -6.5763e-006 115.53 170.44 -19.3442 -160.993 -23.8262 -22.9804 -24.6209 -0.00285067 29.0722 0.0343831 22.3203 -15.7078 5.68332 40.1413 -44.3621 35.465 0.00603265 39.2551 -0.0200481 -17.2349 -3.91021 -4.29817 
6.83948 96.8631 -3.97994 13.2417 16.8491 -50.3823 0.48825 5.97602 5.43298 -65.179 -2.84777 10.2747 -0.00130614 -8.67306e-005 -72.7969 -33.327 -42.0327 -50.4245 -0.870157 -14.5562 19.2278 64.097 2.64967 29.8522 -0.0024858 -6.34206e-006 114.559 170.298 -19.821 -161.71 -23.7885 -24.7534 -25.0078 2.22584e-005 29.1109 0.0284361 22.3587 -15.227 5.48794 41.9346 -45.9307 37.2702 0.00200344 39.9887 -0.0134706 -16.8221 -4.12164 -4.21614 
7.50531 96.7399 -3.80283 13.8313 18.1402 -50.6975 -0.186015 6.8928 5.34463 -64.8084 -2.57466 9.20621 -0.00130513 -8.9922e-005 -72.143 -32.9943 -42.0707 -50.1261 -0.356418 -15.59 19.4678 64.8899 2.25473 29.6708 -0.00248593 -6.06045e-006 113.402 170.376 -20.3119 -162.363 -23.7241 -26.2427 -25.5293 0.00258708 29.0118 0.0230358 22.4051 -14.7632 5.29577 43.689 -47.4538 38.9312 -0.00469158 40.6581 -0.00735255 -16.4205 -4.31579 -4.16309 
8.12523 96.6199 -3.57238 14.3519 19.3496 -50.7001 -0.759193 7.73912 5.19866 -64.3608 -2.13698 7.8414 -0.00130365 -9.44145e-005 -71.2183 -32.6255 -42.0588 -49.6241 -0.108019 -16.4307 19.4842 65.6621 1.83659 29.5691 -0.00248606 -5.74784e-006 112.129 170.353 -20.8324 -162.654 -23.7728 -27.3532 -26.3034 0.00505896 28.7774 0.0180163 22.4735 -14.3038 5.11511 45.233 -49.0388 40.3115 -0.0397666 41.3269 -0.00132462 -15.9983 -4.51553 -4.13729 
8.67448 96.4986 -3.31436 14.7927 20.4477 -50.4912 -1.26652 8.5267 5.17021 -63.8047 -1.51267 6.2278 -0.00130168 -9.99948e-005 -70.0626 -32.4476 -42.083 -49.0796 0.0225825 -17.1579 19.1062 66.2313 1.38222 29.5555 -0.00248619 -5.40458e-006 110.744 170.093 -21.1957 -162.684 -23.9117 -28.1904 -27.1995 0.00741535 28.5358 0.0133027 22.5576 -13.9039 4.94388 46.4799 -50.6487 41.4153 0.00386337 41.9712 0.00511063 -15.57 -4.69353 -4.15876 
9.13752 96.376 -3.03785 15.1455 21.4668 -50.1319 -1.69895 9.22781 5.26438 -63.1666 -0.846518 4.41916 -0.00129936 -0.000106183 -68.7711 -32.2588 -42.1043 -48.4693 -0.0678055 -17.9359 18.4641 66.6711 0.91133 29.5367 -0.00248633 -5.02965e-006 109.246 169.561 -21.1031 -162.876 -24.08 -28.8184 -28.1484 0.00922267 28.3247 0.00979089 22.6485 -13.5787 4.7794 47.6724 -52.1589 42.4584 0.00287239 42.596 0.0100784 -15.1472 -4.84236 -4.26093 
9.50626 96.2546 -2.74475 15.4021 22.4377 -49.6297 -1.98652 9.76638 5.45593 -62.4971 -0.0621509 2.56704 -0.00129685 -0.000112421 -67.4575 -31.6043 -42.1212 -47.9616 -0.286781 -18.8511 17.599 66.8669 0.506379 29.5454 -0.00248647 -4.60317e-006 107.558 168.788 -20.6432 -163.227 -24.2229 -29.2366 -29.1444 0.0103117 28.1056 0.00787346 22.7412 -13.3122 4.62769 48.8205 -53.5965 43.4504 0.00206397 43.2117 0.0126957 -14.7422 -4.96758 -4.46176 
9.76262 96.1493 -2.4433 15.5558 23.3465 -48.997 -2.21912 10.1604 5.67854 -61.8266 0.534719 0.906012 -0.00129468 -0.000117528 -66.3728 -30.8919 -42.1738 -47.3337 -0.336742 -19.9015 16.6567 67.1072 0.127884 29.6917 -0.00248661 -4.12496e-006 105.684 168.642 -20.714 -163.139 -24.3092 -29.4229 -30.1552 0.0112115 27.8498 0.00644716 22.8367 -13.0956 4.49692 49.8479 -54.9135 44.3287 0.00150867 43.765 0.0147467 -14.3644 -5.07002 -4.75806 
9.91125 96.0611 -2.12518 15.6425 24.0733 -48.2692 -2.57496 10.5012 5.84978 -61.1529 0.641147 -0.441004 -0.00129321 -0.000120829 -65.667 -30.8621 -42.4151 -46.6505 0.0783813 -21.0876 16.0963 67.366 -0.0804888 30.0514 -0.00248675 -3.58779e-006 103.599 168.246 -20.7425 -163.747 -24.4446 -29.3512 -31.1432 0.0119327 27.5803 0.00548084 22.9542 -12.9338 4.40179 50.5286 -56.0832 44.9154 0.0011632 44.268 0.0161824 -14.024 -5.18597 -5.0795 
9.94721 95.9977 -1.78184 15.6329 24.6319 -47.4918 -2.87166 10.7355 6.12218 -60.5815 0.629356 -1.51876 -0.00129205 -0.000123361 -65.123 -30.5959 -42.3282 -45.9671 0.115748 -22.1803 15.3969 67.5481 -0.235579 30.6211 -0.00248687 -3.08331e-006 101.658 168.225 -21.2983 -163.152 -24.5406 -29.0076 -32.0341 0.0124959 27.2411 0.00493875 23.0871 -12.8026 4.33775 50.8632 -57.0535 45.1617 0.000982001 44.7287 0.016955 -13.734 -5.352 -5.40183 
9.85888 95.9624 -1.43999 15.4818 24.9874 -46.8058 -3.0755 10.8621 6.61418 -60.0914 0.678661 -2.34088 -0.00129119 -0.000125201 -64.7259 -30.5911 -42.2584 -45.7717 -0.0861626 -22.7274 14.6269 67.5827 -0.260073 31.3808 -0.00248697 -2.54964e-006 99.6189 168.448 -21.4256 -161.736 -24.4911 -28.4666 -32.6326 0.0129122 26.8723 0.00478974 23.2117 -12.7115 4.2924 50.916 -57.6486 45.1294 0.000929858 45.124 0.0170092 -13.5191 -5.56143 -5.72541 
9.67075 95.9621 -1.10384 15.2132 25.1107 -46.1632 -3.24131 10.9101 7.20527 -59.7097 0.611918 -2.99744 -0.00129062 -0.000126393 -64.4682 -30.524 -42.511 -45.336 0.220915 -23.0729 14.0992 67.4918 -0.184499 32.2531 -0.00248705 -2.03011e-006 97.6456 168.213 -21.0391 -161.523 -24.3606 -27.7012 -33.0158 0.0131997 26.4546 0.0049993 23.3071 -12.6268 4.26535 50.5288 -57.94 44.607 0.000967282 45.4323 0.0162923 -13.3846 -5.80357 -5.95795 
9.3752 96.009 -0.773113 14.8267 25.032 -45.5541 -3.30332 10.8273 7.83705 -59.5076 0.346441 -3.3523 -0.00129049 -0.000126669 -64.4084 -29.3974 -42.4144 -44.3026 0.316892 -23.2598 13.6336 67.3882 -0.0189118 33.1921 -0.0024871 -1.5697e-006 95.9046 168.21 -21.3916 -161.876 -24.1033 -26.6722 -33.2057 0.0133853 25.9002 0.00552942 23.3627 -12.5204 4.25288 49.7613 -57.9109 43.6799 0.0010423 45.6409 0.0147601 -13.3197 -6.07256 -6.15836 
8.97447 96.1031 -0.464245 14.3318 24.6999 -45.0227 -3.22811 10.5463 8.65012 -59.296 0.446616 -3.48987 -0.00129003 -0.000127619 -64.2024 -28.4565 -42.5121 -43.8796 0.0380815 -23.0798 12.9157 67.2266 0.291743 33.9174 -0.00361629 -1.09228e-006 94.105 168.033 -21.6668 -162.814 -23.7413 -25.3807 -33.15 0.0134889 25.2243 0.00634541 23.3734 -12.4021 4.24737 48.6173 -57.486 42.4043 0.00109188 45.7332 0.0123765 -13.3293 -6.35898 -6.34845 
8.47757 96.2428 -0.179075 13.763 24.0911 -44.5803 -3.14606 10.1096 9.48311 -59.2055 0.304109 -3.33394 -0.00128965 -0.000128418 -64.0288 -28.7946 -42.7799 -44.0004 -0.221346 -22.5827 11.9731 67.0274 0.871016 34.683 -0.0587158 -6.93812e-007 92.6061 168.239 -21.4821 -162.071 -23.3452 -23.8463 -32.8767 0.0135316 24.4465 0.00741253 23.3426 -12.2712 4.24702 47.0747 -56.6614 40.7885 0.00104165 45.6644 0.00911371 -13.4099 -6.64152 -6.50425 
7.85641 96.4186 0.0587947 13.0699 23.2801 -44.068 -3.03397 9.61964 10.1897 -59.1585 -0.07194 -2.91983 -0.00128986 -0.000127976 -64.1248 -29.2957 -43.089 -43.8729 -0.0681372 -22.1913 10.9599 66.6684 1.48751 35.4926 -0.000411984 -3.24831e-007 91.2198 168.103 -20.5015 -162.451 -22.8661 -22.0092 -32.5405 0.0130025 23.5714 0.0100315 23.2878 -12.1793 4.27198 45.2447 -55.5261 38.8173 0.000831698 45.3961 0.00191316 -13.5821 -6.84899 -6.64021 
7.16629 96.6143 0.265369 12.357 22.2067 -43.5759 -2.98962 9.08247 10.7645 -59.0634 -0.482051 -2.35693 -0.00129034 -0.00012699 -64.3387 -29.3501 -43.2862 -43.3339 0.408272 -21.5688 10.5425 66.5047 2.26383 36.2855 -0.0716248 -1.90362e-008 90.0715 167.816 -20.4652 -163.699 -22.4698 -19.9558 -32.1482 0.0123295 22.6596 0.0132451 23.2164 -12.1042 4.32629 43.1407 -54.1126 36.5719 -0.00673839 44.9823 -0.00580843 -13.829 -6.99567 -6.68308 
6.43082 96.8291 0.435047 11.6111 20.9712 -43.1057 -2.83592 8.46888 11.143 -58.9882 -0.993131 -1.44677 -0.00129125 -0.000125066 -64.755 -29.7782 -43.5426 -43.3822 0.643124 -20.5188 10.2867 66.1914 2.98329 36.9724 0.00206169 2.99857e-008 89.8874 168.199 -20.3468 -162.533 -22.0915 -17.749 -31.7266 0.0116746 21.6937 0.0167029 23.1072 -12.0231 4.39292 40.9475 -52.4541 34.2303 -1.07733e-006 44.3936 -0.0140796 -14.1296 -7.07005 -6.67589 
5.68211 97.0495 0.573312 10.8906 19.6259 -42.6604 -2.61393 7.75004 11.3768 -58.9543 -1.51489 -0.290098 -0.00129255 -0.000122268 -65.358 -30.0291 -43.508 -43.6106 0.503693 -19.101 9.76308 65.7431 3.68801 37.3381 -0.0142517 -7.58601e-008 90.2849 168.573 -19.8809 -161.855 -21.7867 -15.474 -31.3256 0.0110891 20.7172 0.020266 22.9777 -11.947 4.46778 38.8018 -50.6223 31.9627 -0.00697099 43.6633 -0.022558 -14.4599 -7.08506 -6.64107 
